HIERARCHY
ROOT Hips
{
  OFFSET 263.056 91.6644 -274.608
  CHANNELS 6 Xposition Yposition Zposition Zrotation Xrotation Yrotation
  JOINT LeftUpLeg
  {
    OFFSET 8.64259 1.95398 -2.38835
    CHANNELS 3 Zrotation Xrotation Yrotation
    JOINT LeftLeg
    {
      OFFSET 43.7702 0 0
      CHANNELS 3 Zrotation Xrotation Yrotation
      JOINT LeftFoot
      {
        OFFSET 40.6238 0 0
        CHANNELS 3 Zrotation Xrotation Yrotation
        JOINT LeftToeBase
        {
          OFFSET 12.7242 0 0
          CHANNELS 3 Zrotation Xrotation Yrotation
          End Site
          {
            OFFSET 0 0 0
          }
        }
      }
    }
  }
  JOINT RightUpLeg
  {
    OFFSET -8.2249 1.95398 -2.59336
    CHANNELS 3 Zrotation Xrotation Yrotation
    JOINT RightLeg
    {
      OFFSET 43.5653 0 0
      CHANNELS 3 Zrotation Xrotation Yrotation
      JOINT RightFoot
      {
        OFFSET 40.6238 0 0
        CHANNELS 3 Zrotation Xrotation Yrotation
        JOINT RightToeBase
        {
          OFFSET 12.7242 0 0
          CHANNELS 3 Zrotation Xrotation Yrotation
          End Site
          {
            OFFSET 0 0 0
          }
        }
      }
    }
  }
  JOINT Spine
  {
    OFFSET 0.165834 0.87714 6.61349
    CHANNELS 3 Zrotation Xrotation Yrotation
    JOINT Spine1
    {
      OFFSET 7.38963 1.71661e-005 0
      CHANNELS 3 Zrotation Xrotation Yrotation
      JOINT Spine2
      {
        OFFSET 11.9445 1.14441e-005 0
        CHANNELS 3 Zrotation Xrotation Yrotation
        JOINT Spine3
        {
          OFFSET 14.7254 4.19617e-005 0
          CHANNELS 3 Zrotation Xrotation Yrotation
          JOINT Spine4
          {
            OFFSET 10.9679 0 0
            CHANNELS 3 Zrotation Xrotation Yrotation
            JOINT RightShoulder
            {
              OFFSET 2.46616 -1.6653 3.69651
              CHANNELS 3 Zrotation Xrotation Yrotation
              JOINT RightArm
              {
                OFFSET 13.0012 0 0
                CHANNELS 3 Zrotation Xrotation Yrotation
                JOINT RightForeArm
                {
                  OFFSET 28.7848 1.52588e-005 0
                  CHANNELS 3 Zrotation Xrotation Yrotation
                  JOINT RightHand
                  {
                    OFFSET 26.5688 1.52588e-005 0
                    CHANNELS 3 Zrotation Xrotation Yrotation
                    End Site
                    {
                      OFFSET 0 0 0
                    }
                  }
                }
              }
            }
            JOINT LeftShoulder
            {
              OFFSET 2.38034 -1.29275 -3.7523
              CHANNELS 3 Zrotation Xrotation Yrotation
              JOINT LeftArm
              {
                OFFSET 16.3182 6.10352e-005 0
                CHANNELS 3 Zrotation Xrotation Yrotation
                JOINT LeftForeArm
                {
                  OFFSET 27.0901 0 0
                  CHANNELS 3 Zrotation Xrotation Yrotation
                  JOINT LeftHand
                  {
                    OFFSET 24.5451 1.52588e-005 0
                    CHANNELS 3 Zrotation Xrotation Yrotation
                    End Site
                    {
                      OFFSET 0 0 0
                    }
                  }
                }
              }
            }
            JOINT Neck
            {
              OFFSET 5.0226 -0.0266342 0
              CHANNELS 3 Zrotation Xrotation Yrotation
              JOINT Head
              {
                OFFSET 6.69364 2.86102e-005 0
                CHANNELS 3 Zrotation Xrotation Yrotation
                End Site
                {
                  OFFSET 0 0 0
                }
              }
            }
          }
        }
      }
    }
  }
}
MOTION
Frames:	7
Frame Time:	0.0416667
-2849.36 420.009 -3546.88 -92.816 48.2371 -89.5301 -179.959 44.7677 124.395 -5.02589 13.0662 -5.27624 54.0556 -22.7432 -25.9334 -10.9273 -15.4657 -47.5112 141.746 -40.8294 22.0617 -3.63324 -36.303 0.248892 113.132 25.1005 -0.287344 11.3916 -2.67776 7.24153 0.383083 7.57665 -89.5728 11.717 0.962473 0.750429 0.0462449 0.994567 0.707335 -22.4889 0.692444 1.00499 -2.47619 0.69245 1.00498 94.4689 -25.1352 -99.1175 47.5671 -8.70371 2.50325 -22.0261 -11.879 -55.5219 2.73753 -0.0439238 3.93471 -93.7579 -28.6116 65.6168 -44.4418 4.08072 -0.231911 4.78364 16.3592 -18.1076 2.61155 0.257089 3.6048 10.0518 2.70311 0.809445 -3.7845 2.45551 0.724537 
-2705.21 402.554 -3377.5 -90.9274 48.9932 -91.8683 179.329 61.996 116.585 -5.35623 12.4188 -4.32436 39.0295 -16.0297 -26.1782 -11.365 -15.4711 -47.9598 134.276 -48.5293 22.6213 -4.72262 -44.1154 0.167449 116.14 9.65031 0.194912 17.025 -2.01911 7.91942 0.77554 7.41555 -89.4494 12.0346 1.80185 0.902976 0.364626 1.83984 0.822772 -22.1748 1.44718 1.40279 -2.16212 1.44718 1.40278 94.6583 -24.3805 -98.9227 45.5063 -8.9394 -1.82102 -22.7311 -11.0007 -58.062 3.12045 -0.038036 3.50794 -93.593 -28.9715 66.0906 -46.7786 2.28682 2.95397 5.51879 14.4062 -15.0056 2.02461 0.266632 4.89712 10.4523 1.46874 1.11553 -4.08359 1.17646 0.383183 
-2618.68 389.789 -3279.81 -90.0913 50.9106 -90.5982 173.752 69.6989 122.629 -4.46781 10.6164 -6.06492 38.4148 -13.0508 -24.5288 -4.28232 -13.5763 -43.8586 142.271 -48.0598 31.4919 -5.97412 -40.6349 1.20839 128.807 4.10195 -2.48739 16.7275 -2.79551 12.1033 1.13469 7.58593 -89.7639 11.7089 2.36752 0.215601 0.040239 2.37471 0.111126 -22.5109 2.19322 0.917509 -2.49827 2.19321 0.91751 94.4701 -23.3894 -99.6436 42.6781 -8.31005 -7.08008 -22.6591 -10.602 -57.53 4.62791 0.134726 4.88936 -93.7693 -29.7742 66.114 -48.1097 1.51314 2.59517 5.97096 9.2522 -15.7455 2.57639 0.310867 4.90876 10.7396 1.40763 2.31291 -2.8415 0.841406 1.17171 
-2533.48 402.768 -3177.83 -91.2584 49.6481 -88.3827 173.538 70.2529 125.107 -2.12546 8.35974 -9.33337 42.781 -8.84609 -20.6747 1.32252 -10.8703 -42.8541 148.384 -46.5484 37.6839 -5.82365 -31.3237 2.59402 140.296 7.32778 -5.33391 7.50701 -3.88556 9.93326 0.982254 7.87502 -90.0745 11.1271 1.92059 -0.334446 -0.542472 1.90401 -0.418692 -23.0889 1.93227 0.258453 -3.07621 1.93229 0.258448 94.3263 -22.9921 -100.09 40.7357 -7.90564 -8.71414 -22.272 -10.5669 -57.0448 6.47771 0.308499 5.45481 -93.9718 -30.2025 65.9268 -48.9856 1.55896 0.667682 7.47789 9.24244 -19.1942 3.80619 0.373782 4.19628 10.8051 2.02715 3.23817 -2.11603 1.2473 2.08488 
-2361.32 396.993 -3001.16 -91.4137 46.9672 -89.7388 177.113 54.1322 124.082 -5.46158 12.9637 -3.81378 47.55 -19.5679 -27.1742 -0.0817718 -12.3496 -41.0858 156.161 -35.2588 41.0079 -5.90902 -24.5256 3.35752 133.918 17.81 -7.34505 2.44795 -4.62703 9.71088 0.637717 7.87765 -89.9085 11.1188 1.31184 0.0548083 -0.551434 1.31298 -0.00300574 -23.0914 1.23471 0.446596 -3.07879 1.2347 0.446588 94.2334 -24.1403 -99.9368 41.805 -7.54394 -4.5732 -23.9597 -12.3482 -54.9526 7.13942 0.240718 4.38288 -94.2451 -29.9796 65.3209 -47.3468 1.94057 -1.01022 8.15396 9.57326 -21.8859 6.70428 0.508046 3.16054 10.6448 1.86187 2.69974 -2.04878 1.21131 1.63083 
-2149.63 409.481 -2770.31 -91.5089 45.2478 -90.2778 -172.168 7.33194 136.87 -4.86391 13.3943 -2.0249 78.779 -33.4676 -24.6068 0.124385 -12.0232 -41.611 171.878 0.0600604 43.6329 -5.6661 -21.7027 4.19988 96.9579 35.9197 0.611155 1.01403 -4.91946 9.90453 0.405408 7.65447 -89.8842 11.5645 0.860791 0.142514 -0.106126 0.866234 0.104487 -22.6432 0.778151 0.394647 -2.63051 0.778161 0.394638 94.3967 -24.4804 -99.4706 44.2428 -7.33473 2.28973 -21.5912 -15.164 -49.0034 9.30938 0.417245 4.80453 -94.1407 -29.6364 65.3607 -45.767 1.85821 -2.94865 8.65328 8.95229 -23.8079 6.69871 0.557315 3.78373 9.79499 2.24911 2.67685 -3.44458 1.59715 1.9345 
-1946.19 431.114 -2544.58 -91.3639 43.3923 -89.2738 -147.657 -37.9325 149.206 -4.14287 19.9364 -1.27777 116.598 -26.6938 -11.3091 2.20743 -11.1904 -40.6695 -175.493 37.5668 50.2827 -5.71782 -18.3982 4.13923 50.9735 35.4751 15.5912 -1.21803 -5.36463 10.1311 -0.0569567 7.47232 -90.023 11.931 -0.123997 -0.0322632 0.26003 -0.125305 -0.0267806 -22.275 -0.108581 -0.0680355 -2.26236 -0.108577 -0.0680456 94.4914 -24.6351 -99.2166 45.8249 -6.59063 7.82101 -19.4533 -17.3593 -43.894 11.6376 0.684637 5.83247 -93.9756 -29.2322 65.4877 -43.5335 1.69536 -3.83286 9.58048 8.44009 -28.1984 7.56063 0.542039 2.94405 9.69641 3.37526 2.50019 -4.30548 2.72535 2.05068 
